<svg width="33" height="32" viewBox="0 0 33 32" fill="none" xmlns="http://www.w3.org/2000/svg">
<path d="M18.9714 23.7065L20.9615 21.7164C21.1181 21.5606 21.3038 21.4372 21.5081 21.3533C21.7124 21.2694 21.9312 21.2267 22.152 21.2275C22.2737 21.2276 22.3951 21.2404 22.5141 21.2657C23.5485 21.4853 24.603 21.596 25.6605 21.5958C25.7819 21.5958 25.9033 21.5944 26.0246 21.5914C26.0383 21.5911 26.0517 21.591 26.0653 21.591C26.5096 21.5922 26.9351 21.7697 27.2486 22.0845C27.562 22.3993 27.7377 22.8256 27.737 23.2698V28.3139C27.7361 28.7565 27.5611 29.1811 27.2499 29.4959C26.9387 29.8107 26.5162 29.9906 26.0736 29.9967C25.9396 29.999 25.806 30.0001 25.672 30.0001C22.937 30.0007 20.2226 29.5263 17.6499 28.598C14.4065 27.4249 11.4621 25.5501 9.02693 23.1076C6.7905 20.8761 5.02758 18.216 3.8438 15.2869C2.66003 12.3577 2.07978 9.21972 2.13781 6.06093C2.14391 5.6183 2.32377 5.19581 2.6386 4.88461C2.95342 4.5734 3.37797 4.39845 3.82065 4.39748H8.86535C9.08853 4.39699 9.30957 4.44109 9.51547 4.52721C9.72136 4.61333 9.90798 4.73973 10.0643 4.89898C10.2207 5.05823 10.3437 5.24712 10.426 5.45456C10.5084 5.66199 10.5484 5.88379 10.5439 6.10693C10.5149 7.31081 10.6294 8.51387 10.8849 9.69068C10.9468 9.96745 10.9381 10.2553 10.8597 10.5279C10.7812 10.8004 10.6354 11.0489 10.4358 11.2503L8.45413 13.232" stroke="white" stroke-width="3"/>
<path d="M11.5757 15.1628L16.971 20.5581" stroke="white" stroke-width="3"/>
<path d="M16.2966 9.09301L18.3199 1M21.692 11.1163L27.7617 5.04651" stroke="white" stroke-width="3"/>
<path d="M23.7151 16.3776L32.0323 15.733" stroke="white" stroke-width="3"/>
</svg>
