<svg width="26" height="26" viewBox="0 0 26 26" fill="none" xmlns="http://www.w3.org/2000/svg">
    <path d="M24.8526 12.5566C24.7346 9.33498 23.3489 6.40887 21.1376 4.31034C20.9312 4.10345 20.7248 3.92611 20.4889 3.71921C18.7494 2.27094 16.5676 1.32512 14.1794 1.05911C13.914 1.02956 13.6192 1.02956 13.3243 1C13.2359 1 13.1474 1 13.059 1C13 1 12.941 1 12.8821 1C12.8231 1 12.8231 1.02956 12.7936 1.02956C12.7052 1.02956 12.6167 1.02956 12.5283 1.02956C12.2334 1.02956 11.9681 1.05911 11.6732 1.08867C9.28501 1.35468 7.13268 2.30049 5.36364 3.74877C5.12776 3.92611 4.92138 4.133 4.71499 4.3399C2.53317 6.43842 1.14742 9.33498 1.02948 12.5566C1.02948 12.7044 1 12.8522 1 13C1 13.1478 1.02948 13.2956 1.02948 13.4433C1.14742 16.665 2.53317 19.5911 4.74447 21.6897C4.95086 21.8966 5.15725 22.0739 5.39312 22.2808C7.13268 23.7291 9.3145 24.6749 11.7027 24.9409C11.9681 24.9704 12.2629 24.9704 12.5577 25C12.6462 25 12.7346 25 12.8231 25C12.8821 25 12.941 25 13 25C13.059 25 13.1179 25 13.1769 25C13.2654 25 13.3538 25 13.4423 25C13.7371 25 14.0025 24.9704 14.2973 24.9409C16.6855 24.6749 18.8378 23.7291 20.6069 22.2808C20.8428 22.1034 21.0491 21.8966 21.2555 21.6897C23.4373 19.5911 24.8526 16.6946 24.9705 13.4433C24.9705 13.2956 25 13.1478 25 13C25 12.8522 24.8821 12.7044 24.8526 12.5566ZM23.9975 12.5566H19.1327C19.0737 10.4286 18.5725 8.44828 17.7174 6.61576C18.7199 6.17241 19.6929 5.58128 20.5184 4.90148C22.5823 6.85222 23.8796 9.57143 23.9975 12.5566ZM13.3833 2.35961C14.6511 3.42365 15.7125 4.72414 16.5086 6.17241C15.5061 6.49754 14.4742 6.70443 13.3833 6.76355V2.35961ZM13.3833 19.2365C14.4742 19.266 15.5356 19.4729 16.5086 19.8276C15.683 21.2759 14.6216 22.5764 13.3833 23.6404V19.2365ZM13.3833 18.3793V13.4433H18.2776C18.2187 15.4532 17.7469 17.3448 16.9214 19.0591C15.801 18.6453 14.6216 18.4384 13.3833 18.3793ZM13.3833 12.5566V7.62069C14.6216 7.56158 15.801 7.35468 16.9214 6.94089C17.7469 8.65517 18.2187 10.5468 18.2776 12.5566H13.3833ZM19.8698 4.3399C19.1032 4.96059 18.2482 5.46305 17.3342 5.87685C16.5381 4.39901 15.4767 3.09852 14.2678 1.97537C16.3612 2.24138 18.2776 3.06897 19.8698 4.3399ZM12.4988 7.62069V12.5566H7.60442C7.66339 10.5468 8.13513 8.65517 8.96069 6.94089C10.0811 7.35468 11.2899 7.59113 12.4988 7.62069ZM9.37346 6.17241C10.199 4.72414 11.2604 3.42365 12.4988 2.35961V6.76355C11.4079 6.70443 10.3759 6.52709 9.37346 6.17241ZM12.4988 13.4433V18.3793C11.2604 18.4384 10.0811 18.6453 8.96069 19.0591C8.13513 17.3448 7.66339 15.4532 7.60442 13.4433H12.4988ZM12.4988 19.2365V23.6404C11.231 22.5764 10.1695 21.2759 9.37346 19.8276C10.3759 19.5025 11.4079 19.2956 12.4988 19.2365ZM11.6437 1.97537C10.4054 3.09852 9.37346 4.39901 8.5774 5.84729C7.66339 5.46305 6.80835 4.93103 6.04177 4.31034C7.60442 3.06897 9.52088 2.24138 11.6437 1.97537ZM5.36364 4.93103C6.21867 5.64039 7.16216 6.20197 8.16462 6.64532C7.30958 8.44828 6.80835 10.4581 6.74939 12.5862H1.88452C2.00246 9.57143 3.32924 6.85222 5.36364 4.93103ZM1.88452 13.4433H6.74939C6.80835 15.5714 7.30958 17.5517 8.16462 19.3842C7.16216 19.8276 6.18919 20.4187 5.36364 21.0985C3.32924 19.1478 2.00246 16.4581 1.88452 13.4433ZM6.04177 21.6601C6.80835 21.0394 7.66339 20.5369 8.5774 20.1232C9.37346 21.601 10.4349 22.9015 11.6437 23.9951C9.52088 23.7882 7.60442 22.931 6.04177 21.6601ZM14.2678 24.0246C15.5061 22.9015 16.5381 21.601 17.3342 20.1527C18.2482 20.5369 19.1032 21.069 19.8698 21.6897C18.2776 22.931 16.3612 23.7882 14.2678 24.0246ZM20.5184 21.0985C19.6634 20.3892 18.7199 19.8276 17.7174 19.3842C18.5725 17.5813 19.0737 15.5714 19.1327 13.4433H23.9975C23.8796 16.4581 22.5823 19.1478 20.5184 21.0985Z" fill="black" stroke="black"/>
</svg>
