<svg xmlns="http://www.w3.org/2000/svg" version="1.1" xmlns:xlink="http://www.w3.org/1999/xlink" xmlns:svgjs="http://svgjs.com/svgjs" height="103.693359375" width="324.040234375"><defs id="SvgjsDefs2874"></defs><g id="SvgjsG2875" rel="mainfill" name="main_text" xmlns:name="main_text" transform="translate(116.88007812500001,-161.3798828125)" fill="#ffffff"><path d="M44.86 209.81C43.06 208.39 41.55 207.54 39.65 207.16C40.03 207.07 40.03 206.97 40.32 206.69C41.55 205.93 42.59 205.27 43.44 204.23C43.91 203.75 45.62 200.63 45.62 198.45C45.62 197.41 45.43 194.95 45.05 193.63C44.95 193.53 44.95 193.53 44.95 193.44L43.25 190.03C42.59 188.99 41.74 187.95 40.98 186.81C40.03 185.77 38.99 184.83 37.95 184.07C36.72 183.22 35.58 182.46 34.16 181.80C32.93 181.14 31.51 180.95 30.28 180.66C28.86 180.28 27.54 180.19 26.12 180.19C23.56 180.19 21.10 180.66 18.83 181.32C16.66 181.99 14.67 182.65 12.49 183.50C10.69 184.35 8.71 185.30 6.81 186.44L6.53 187.19C6.53 188.04 7.10 188.71 7.76 189.18C8.52 189.84 9.46 190.50 9.84 191.26L10.69 192.02C10.79 192.11 10.79 192.30 10.79 192.59C10.79 192.97 10.69 193.34 10.41 193.63L8.90 195.05C8.80 195.14 8.80 195.24 8.80 195.43C8.99 195.43 9.27 195.33 9.75 195.14C10.79 194.86 12.02 194.10 13.25 193.44C14.48 192.68 15.71 192.11 16.75 191.83C17.32 191.64 17.79 191.55 18.17 191.55C18.45 191.55 18.55 191.64 18.64 191.64C19.31 191.74 19.50 191.92 19.87 192.02C19.02 192.30 17.79 193.34 16.94 193.34L14.29 194.48C12.87 195.52 9.46 196.37 10.22 197.51C12.30 196.18 14.48 195.05 16.75 194.20C17.98 193.72 18.93 193.44 20.06 192.97C21.10 192.59 22.24 192.49 23.38 192.21C24.32 191.92 25.36 191.83 26.40 191.83C27.07 191.83 27.44 191.83 27.73 191.92C29.15 192.11 31.80 192.68 33.03 195.71C33.88 197.89 33.22 199.78 32.08 200.16L28.96 201.48C27.82 202.15 26.69 202.52 25.55 203.00L21.10 204.51L20.44 208.01L20.73 208.68C20.73 209.15 20.16 209.62 20.06 210.09C20.06 210.57 20.25 211.04 20.63 211.42C20.63 211.51 21.48 212.18 22.15 213.03C22.90 213.79 21.67 213.60 21.67 214.73C23.19 214.26 24.89 213.88 26.40 213.22C26.40 213.50 26.59 213.79 26.69 214.07C29.05 214.07 31.51 214.35 33.41 215.30C38.52 217.85 36.72 225.71 35.39 227.03C34.45 227.98 33.41 228.55 31.99 228.93C30.95 229.21 29.81 229.40 28.58 229.40L27.44 229.31C25.93 229.21 24.23 228.93 22.43 228.45C19.87 227.70 17.60 226.56 15.33 225.43C13.06 224.20 10.79 222.87 8.42 221.26C8.52 222.40 9.46 222.59 9.46 223.06C9.46 223.34 9.56 223.53 9.09 223.91C8.71 224.20 7.95 224.38 7.57 224.48C6.91 224.76 6.62 224.67 6.53 224.95C6.06 225.24 5.49 225.43 5.49 226.28C5.77 226.56 5.96 227.13 6.34 227.60C6.62 228.08 6.81 228.36 6.81 228.64C6.72 229.02 6.34 229.31 5.49 229.50C4.83 229.59 4.07 229.59 3.41 229.59C2.93 229.68 2.93 229.97 2.65 230.35C2.37 230.63 2.27 230.91 1.89 231.01C4.35 232.71 6.91 234.32 9.65 235.74C12.59 237.16 15.24 238.39 18.55 239.24C19.97 239.91 21.58 240.09 23.38 240.47C24.89 240.76 26.69 240.85 28.49 240.85C30.38 240.85 32.08 240.76 34.07 240.38C35.87 239.91 37.85 239.24 39.46 238.20C40.98 237.44 44.95 234.70 47.03 229.40C47.41 227.89 48.08 224.29 48.08 220.41C48.08 216.53 47.41 212.37 44.86 209.81ZM98.99 198.45C98.71 198.45 98.52 199.40 98.42 201.39C98.04 200.73 97.48 200.73 97.19 199.59L97.19 194.67C97.00 194.20 96.91 194.01 96.81 194.01C96.53 194.01 96.34 194.95 95.96 195.43C95.68 195.80 95.39 195.99 95.02 195.99L93.79 195.80C92.56 195.80 91.04 195.14 89.62 195.14C89.15 195.14 88.68 195.24 88.20 195.43L87.82 198.83C83.85 203.00 75.14 211.89 68.52 218.61L68.42 208.39C68.42 206.50 68.42 204.23 68.52 201.86C68.61 201.01 68.61 200.25 68.61 199.40L68.61 192.68C67.67 193.91 67.95 196.85 67.67 199.59C67.29 199.12 66.62 198.93 66.34 197.70L66.34 194.29L66.44 193.63L66.34 193.15C66.25 192.68 66.15 192.49 66.06 192.49C65.77 192.49 65.58 193.44 65.30 193.91C65.02 194.20 64.73 194.38 64.35 194.38L58.96 193.53C58.49 193.53 58.01 193.63 57.54 193.82C57.26 200.25 57.07 218.14 57.07 230.06C57.07 234.79 57.07 238.58 57.16 240.38C57.44 240.28 57.63 240.19 57.73 240.19L58.58 240.28C58.77 240.28 58.86 240.28 58.96 240.19C59.72 239.53 60.66 238.77 61.42 238.77C62.18 239.05 62.46 239.81 62.93 240.09C63.22 240.19 63.41 240.28 63.60 240.28C63.97 240.28 64.26 240.19 64.64 240.09C64.92 240 66.44 239.05 67.57 239.05C68.23 239.05 68.14 240.09 68.71 240.19L68.61 234.61L86.12 216.91L84.98 228.45C84.61 234.98 84.23 237.07 84.23 243.79C84.32 243.69 84.61 243.60 84.89 243.60L85.74 243.69C85.84 243.69 85.93 243.69 86.03 243.60C86.88 242.93 87.63 242.08 88.49 242.08L88.77 242.18C89.24 242.46 89.43 243.22 90.09 243.60C90.38 243.69 90.57 243.79 90.66 243.79C90.85 243.79 91.23 243.69 91.70 243.60C91.99 243.60 92.84 242.93 93.88 242.56C94.16 242.56 94.26 242.46 94.54 242.46C95.39 242.46 95.21 243.50 95.77 243.88L95.77 239.15C95.77 234.23 98.90 208.96 99.27 203.75C99.27 203.47 99.37 202.52 99.37 201.48C99.37 199.50 99.27 198.45 98.99 198.45ZM144.04 193.82C143.38 193.82 143.38 193.91 143.09 194.01L143.09 195.52C141.67 198.08 139.59 200.35 138.17 202.71L133.44 208.30L133.25 208.58L132.87 208.39L125.58 200.25L122.93 196.94L121.89 195.62C121.80 194.01 121.61 192.30 121.61 190.50C120.76 191.07 121.23 193.25 121.23 194.67L120.28 193.44C120.28 194.29 120.85 195.05 121.14 195.52L121.14 197.22C120.66 196.75 120.00 196.66 119.72 195.52C119.62 195.05 119.53 194.67 119.53 194.01L119.53 192.78C119.53 191.92 119.43 191.36 119.34 191.07C119.24 190.69 119.15 190.50 119.05 190.50C118.77 190.50 118.68 191.36 118.30 191.83C118.01 192.21 117.73 192.40 117.26 192.40L116.12 192.30C115.36 192.30 114.51 192.11 113.47 191.83L112.05 191.74C111.58 191.74 111.10 191.83 110.73 192.02C110.91 208.20 113.38 233.56 113.66 240.19C113.75 240.09 113.94 240.09 114.13 240.09L114.89 240.19C114.98 240.19 115.17 240.09 115.46 240C116.21 239.53 116.97 238.68 117.73 238.68C117.92 238.68 118.01 238.68 118.11 238.77C118.58 238.86 118.96 239.72 119.43 240C119.72 240.09 119.91 240.19 120.09 240.19C120.28 240.19 120.66 240.09 121.14 240C121.23 239.91 122.18 239.34 123.22 239.05C123.41 238.96 123.69 238.96 123.97 238.96C124.64 238.96 124.35 240.09 125.11 240.09L124.26 228.26C123.79 222.21 123.79 218.04 123.41 213.60L133.15 222.30L143.19 213.31C143.75 229.40 144.23 239.81 144.32 246.25L146.21 246.06C146.97 245.39 147.73 244.54 148.49 244.54L148.77 244.64C149.43 244.73 149.53 245.68 150.19 246.06C150.47 246.15 150.66 246.25 150.76 246.25C150.95 246.25 151.32 246.34 151.80 246.06C152.27 245.77 152.84 245.30 153.88 245.02C154.26 244.92 154.54 244.83 154.73 244.83C155.39 244.83 155.30 245.87 155.77 246.15C155.77 241.99 154.26 198.74 153.50 198.74C153.60 198.74 153.12 199.40 152.74 199.40C152.08 199.40 151.99 198.45 151.99 197.22L151.99 193.25C151.99 192.87 151.89 192.68 151.80 192.68C151.04 192.68 144.23 193.82 144.04 193.82ZM122.08 199.02C122.08 198.17 122.08 197.70 121.99 196.85C122.56 197.51 122.84 198.08 123.69 199.21C123.03 199.12 122.74 199.31 122.08 199.02ZM202.90 229.31C202.24 228.55 201.67 227.70 201.20 226.85C201.20 226.37 201.29 225.71 201.48 224.76C201.58 223.91 201.58 223.15 201.48 222.40L201.39 222.02C200.54 221.92 199.68 221.92 198.93 221.83L197.79 219.18C197.32 217.76 197.03 216.53 196.47 215.11L194.29 209.81C192.87 206.40 192.59 203.94 191.55 199.50C190.88 196.94 190.13 195.05 189.65 192.78C188.99 193.82 189.56 195.33 189.94 197.51C189.46 197.22 188.52 197.70 188.14 196.85L186.72 193.53C186.62 193.25 186.53 193.06 186.34 193.06C186.06 193.06 186.25 193.91 185.96 194.20C185.68 195.05 184.92 194.76 184.26 195.05L181.70 195.14C181.70 194.38 181.70 193.91 181.61 193.25C181.61 192.97 181.51 192.78 181.32 192.78C181.23 192.78 181.04 193.63 180.66 194.01C180.38 194.29 180.09 194.38 179.81 194.38L177.92 194.48C177.26 194.48 176.50 194.20 175.74 194.10C175.27 194.01 174.98 193.91 174.61 193.91C174.23 193.91 171.77 194.01 171.39 194.20C171.29 197.89 171.10 200.91 170.44 204.61C169.97 207.73 169.31 210.85 168.64 214.16C168.64 214.54 168.64 214.83 168.55 215.11C167.70 219.56 166.66 223.91 165.80 228.36C165.43 231.01 165.05 233.66 164.57 236.40C164.20 239.05 163.91 241.70 165.90 244.64C165.99 244.54 166.09 244.45 166.28 244.45L167.13 244.64C167.22 244.64 167.41 244.54 167.51 244.45C168.17 244.07 168.74 243.50 169.40 243.50L169.78 243.60C170.16 243.69 170.35 244.35 170.73 244.73C170.91 244.83 171.10 244.83 171.39 244.83L172.15 244.83C172.43 244.83 173.09 244.35 173.94 244.07L174.51 243.97C175.08 243.97 175.36 244.35 175.36 245.02C175.65 242.46 175.74 240 176.03 237.26L176.59 233.28L179.53 232.90C180.38 232.81 181.23 232.81 182.08 232.81C185.58 232.24 187.57 232.43 190.50 232.24C190.79 232.24 191.07 232.15 191.36 232.15C192.02 233.00 192.78 233.94 193.34 234.79C194.76 237.07 195.80 240 199.97 242.84C199.97 242.56 200.82 240.85 200.91 240.57C201.29 240.28 201.48 240.09 201.58 239.81C201.58 239.53 201.67 239.15 201.77 238.49C201.77 238.20 201.96 237.82 202.24 237.54C202.33 237.44 202.43 237.44 202.62 237.44L203.47 237.54C204.23 237.54 204.42 236.88 204.70 236.59C204.70 236.31 204.79 236.12 204.98 235.93C204.98 235.65 205.27 235.17 205.55 234.79C205.84 234.42 206.12 234.23 206.21 234.13C206.31 234.04 206.40 234.04 206.59 234.04C206.78 234.04 206.97 234.13 207.16 234.32C205.65 232.81 204.32 231.20 202.90 229.31ZM181.14 222.97L178.20 223.34L178.77 220.03C179.53 216.62 179.91 213.12 181.32 204.89C182.65 210 182.93 211.32 186.15 219.65L187.10 222.30C184.92 222.49 183.50 222.68 181.14 222.97Z" fill="#61B594" style="fill: rgb(255, 255, 255);"></path></g><g id="SvgjsG2876" rel="mainfill" name="symbol" xmlns:name="symbol_mainfill" transform="translate(-4.229296874999993,-4.2152343750000005) scale(0.9)" fill="#61B594"><g fill="#61B594"><g fill="#61B594"><g fill="#61B594"><g fill="#61B594"><g fill="#61B594"><g fill="#61B594"><g fill="#61B594"><path d="M74.4,84.2H50.3c-0.4,0-0.7-0.2-0.9-0.5l-12-20.8c-0.2-0.3-0.2-0.7,0-1l12-20.8c0.2-0.3,0.5-0.5,0.9-0.5h24.1         c0.4,0,0.7,0.2,0.9,0.5l12,20.8c0.2,0.3,0.2,0.7,0,1l-12,20.8C75,84,74.7,84.2,74.4,84.2z M50.9,82.2h22.9l11.5-19.8         L73.8,42.5H50.9L39.4,62.3L50.9,82.2z" fill="#61B594" style="fill: rgb(97, 181, 148);"></path></g></g></g></g></g><g fill="#61B594"><g fill="#61B594"><g fill="#61B594"><g fill="#61B594"><g fill="#61B594"><path d="M62.3,119.9c-31.8,0-57.6-25.8-57.6-57.6c0-7.3,1.4-14.4,4-21.2c0.2-0.4,0.5-0.6,0.9-0.6h62.8L53,6.8         c-0.2-0.3-0.2-0.6,0-0.9c0.1-0.3,0.4-0.5,0.8-0.6c2.8-0.4,5.7-0.6,8.6-0.6c31.8,0,57.6,25.8,57.6,57.6S94.1,119.9,62.3,119.9         z M10.4,42.5c-2.4,6.3-3.6,13-3.6,19.8c0,30.7,24.9,55.6,55.6,55.6s55.6-25,55.6-55.6S93,6.7,62.3,6.7         c-2.3,0-4.6,0.1-6.8,0.4L75,41c0.2,0.3,0.2,0.7,0,1c-0.2,0.3-0.5,0.5-0.9,0.5H10.4z" fill="#61B594" style="fill: rgb(97, 181, 148);"></path></g></g></g></g></g><g fill="#61B594"><g fill="#61B594"><g fill="#61B594"><g fill="#61B594"><g fill="#61B594"><path d="M74.2,42.5H9.7c-0.3,0-0.6-0.2-0.8-0.4c-0.2-0.3-0.2-0.6-0.1-0.9c7.5-19.1,24.8-32.8,45-35.8c0.4-0.1,0.8,0.1,1,0.5         L75,41c0.2,0.3,0.2,0.7,0,1C74.9,42.3,74.5,42.5,74.2,42.5z M11.2,40.5h61.3L53.3,7.4C34.6,10.5,18.6,23,11.2,40.5z" fill="#61B594" style="fill: rgb(97, 181, 148);"></path></g></g></g></g></g><g fill="#61B594"><g fill="#61B594"><g fill="#61B594"><g fill="#61B594"><g fill="#61B594"><path d="M18,98.5c-0.3,0-0.6-0.1-0.8-0.4C4.5,82.1,1.2,60.3,8.7,41.3c0.2-0.4,0.5-0.6,0.9-0.6h40.6c0.4,0,0.7,0.2,0.9,0.5         c0.2,0.3,0.2,0.7,0,1L18.8,98C18.7,98.3,18.4,98.5,18,98.5C18,98.5,18,98.5,18,98.5z M10.3,42.7c-6.7,17.7-3.8,37.9,7.6,53.1         l30.6-53.1H10.3z" fill="#61B594" style="fill: rgb(97, 181, 148);"></path></g></g></g></g></g><g fill="#61B594"><g fill="#61B594"><g fill="#61B594"><g fill="#61B594"><g fill="#61B594"><path d="M62.4,119.9c-17.4,0-34.1-7.9-45.1-21.7c-0.3-0.3-0.3-0.8-0.1-1.1L37.5,62c0.4-0.6,1.4-0.6,1.7,0l32.3,55.9         c0.2,0.3,0.2,0.6,0,0.9s-0.4,0.5-0.8,0.6C68,119.7,65.2,119.9,62.4,119.9z M19.3,97.5c12,14.7,30.9,22.3,49.7,20L38.4,64.5         L19.3,97.5z" fill="#61B594" style="fill: rgb(97, 181, 148);"></path></g></g></g></g></g><g fill="#61B594"><g fill="#61B594"><g fill="#61B594"><g fill="#61B594"><g fill="#61B594"><path d="M70.8,119.3c-0.4,0-0.7-0.2-0.9-0.5L49.6,83.6c-0.2-0.3-0.2-0.7,0-1c0.2-0.3,0.5-0.5,0.9-0.5H115         c0.3,0,0.6,0.2,0.8,0.4c0.2,0.3,0.2,0.6,0.1,0.9c-7.5,19.1-24.8,32.8-45,35.8C70.9,119.3,70.8,119.3,70.8,119.3z M52.2,84.1         l19.1,33.1c18.7-3,34.7-15.6,42.2-33.1H52.2z" fill="#61B594" style="fill: rgb(97, 181, 148);"></path></g></g></g></g></g><g fill="#61B594"><g fill="#61B594"><g fill="#61B594"><g fill="#61B594"><g fill="#61B594"><path d="M115,84H74.4c-0.4,0-0.7-0.2-0.9-0.5c-0.2-0.3-0.2-0.7,0-1l32.3-55.9c0.2-0.3,0.5-0.5,0.8-0.5c0.3,0,0.7,0.1,0.9,0.4         c12.7,16.1,16,37.8,8.5,56.9C115.8,83.7,115.4,84,115,84z M76.1,82h38.2c6.7-17.7,3.8-37.9-7.6-53.1L76.1,82z" fill="#61B594" style="fill: rgb(97, 181, 148);"></path></g></g></g></g></g><g fill="#61B594"><g fill="#61B594"><g fill="#61B594"><g fill="#61B594"><g fill="#61B594"><path d="M86.3,63.2c-0.4,0-0.7-0.2-0.9-0.5L53.1,6.8c-0.2-0.3-0.2-0.6,0-0.9s0.4-0.5,0.8-0.6c20.3-3,40.8,5.1,53.5,21         c0.3,0.3,0.3,0.8,0.1,1.1L87.1,62.7C87,63,86.6,63.2,86.3,63.2z M55.6,7.1l30.6,53.1l19.1-33.1C93.4,12.4,74.5,4.8,55.6,7.1z         " fill="#61B594" style="fill: rgb(97, 181, 148);"></path></g></g></g></g></g></g></g></g></svg>